<svg version="1.1" viewBox="0.0 0.0 171.49081364829397 103.58267716535433" fill="none" stroke="none" stroke-linecap="square" stroke-miterlimit="10" xmlns:xlink="http://www.w3.org/1999/xlink" xmlns="http://www.w3.org/2000/svg"><clipPath id="p.0"><path d="m0 0l171.49081 0l0 103.58268l-171.49081 0l0 -103.58268z" clip-rule="nonzero"/></clipPath><g clip-path="url(#p.0)"><path fill="#000000" fill-opacity="0.0" d="m0 0l171.49081 0l0 103.58268l-171.49081 0z" fill-rule="evenodd"/><path fill="#000000" fill-opacity="0.0" d="m-7.0757513 -24.891409l196.88188 0l0 96.755905l-196.88188 0z" fill-rule="evenodd"/><path fill="#000000" d="m8.221124 67.308586l0 -62.03125l20.109375 0q11.421873 0 14.890623 0.9375q5.328125 1.390625 8.921875 6.0625005q3.609375 4.671875 3.609375 12.078125q0 5.71875 -2.078125 9.609373q-2.078125 3.890625 -5.28125 6.125q-3.1875 2.21875 -6.484375 2.9375q-4.484375 0.875 -12.984373 0.875l-8.171875 0l0 23.40625l-12.531251 0zm12.531251 -51.53125l0 17.593748l6.859375 0q7.406248 0 9.890623 -0.96875q2.5 -0.9687481 3.921875 -3.046873q1.421875 -2.078125 1.421875 -4.828125q0 -3.375 -2.0 -5.578125q-1.984375 -2.203125 -5.03125 -2.75q-2.234375 -0.421875 -9.015623 -0.421875l-6.046875 0zm82.79904 40.484375l0 11.046875l-41.671875 0q0.671875 -6.265625 4.0625 -11.859375q3.390625 -5.609375 13.375 -14.875q8.03125 -7.5 9.859375 -10.156248q2.453125 -3.6875 2.453125 -7.28125q0 -3.984375 -2.140625 -6.109375q-2.140625 -2.140625 -5.90625 -2.140625q-3.71875 0 -5.921875 2.25q-2.203125 2.234375 -2.53125 7.4375l-11.859375 -1.1875q1.0625 -9.8125 6.640625 -14.078125q5.59375 -4.2812505 13.96875 -4.2812505q9.1875 0 14.421875 4.9531255q5.25 4.9375 5.25 12.3125q0 4.1875 -1.5 7.984375q-1.5 3.781248 -4.75 7.921873q-2.15625 2.75 -7.796875 7.921875q-5.625 5.15625 -7.125 6.84375q-1.5 1.6875 -2.4375 3.296875l23.609375 0zm10.662827 11.046875l0 -62.03125l20.109383 0q11.421875 0 14.890625 0.9375q5.328125 1.390625 8.921875 6.0625005q3.609375 4.671875 3.609375 12.078125q0 5.71875 -2.078125 9.609373q-2.078125 3.890625 -5.28125 6.125q-3.1875 2.21875 -6.484375 2.9375q-4.484375 0.875 -12.984375 0.875l-8.171883 0l0 23.40625l-12.53125 0zm12.53125 -51.53125l0 17.593748l6.8593826 0q7.40625 0 9.890625 -0.96875q2.5 -0.9687481 3.921875 -3.046873q1.421875 -2.078125 1.421875 -4.828125q0 -3.375 -2.0 -5.578125q-1.984375 -2.203125 -5.03125 -2.75q-2.234375 -0.421875 -9.015625 -0.421875l-6.0468826 0z" fill-rule="nonzero"/><path fill="#000000" fill-opacity="0.0" d="m-2.7537723 64.72623l176.0315 0l0 38.33071l-176.0315 0z" fill-rule="evenodd"/><path fill="#972e2d" d="m7.6681027 92.92623l0 -14.3125l4.3281255 0l2.59375 9.765625l2.562499 -9.765625l4.34375 0l0 14.3125l-2.6875 0l0 -11.265625l-2.843749 11.265625l-2.78125 0l-2.828125 -11.265625l0 11.265625l-2.6875005 0zm16.691406 0l0 -14.3125l10.625 0l0 2.421875l-7.734375 0l0 3.171875l7.1875 0l0 2.40625l-7.1875 0l0 3.90625l8.0 0l0 2.40625l-10.890625 0zm13.339844 -14.3125l5.28125 0q1.78125 0 2.71875 0.265625q1.265625 0.375 2.15625 1.328125q0.90625 0.9375 1.375 2.3125q0.46875 1.375 0.46875 3.390625q0 1.765625 -0.4375 3.046875q-0.546875 1.5625 -1.546875 2.515625q-0.75 0.734375 -2.03125 1.15625q-0.953125 0.296875 -2.546875 0.296875l-5.4375 0l0 -14.3125zm2.890625 2.421875l0 9.484375l2.15625 0q1.203125 0 1.75 -0.140625q0.703125 -0.171875 1.15625 -0.59375q0.46875 -0.421875 0.75 -1.375q0.296875 -0.96875 0.296875 -2.640625q0 -1.65625 -0.296875 -2.546875q-0.28125 -0.890625 -0.8125 -1.375q-0.53125 -0.5 -1.328125 -0.6875q-0.609375 -0.125 -2.375 -0.125l-1.296875 0zm11.474609 11.890625l0 -14.3125l2.890625 0l0 14.3125l-2.890625 0zm18.54102 0l-3.140625 0l-1.25 -3.25l-5.718754 0l-1.1875 3.25l-3.0625 0l5.578125 -14.3125l3.0625038 0l5.71875 14.3125zm-5.3125 -5.671875l-1.9687538 -5.3125l-1.9375 5.3125l3.9062538 0zm12.484375 5.671875l0 -14.203125l2.890625 0l0 11.796875l7.1875 0l0 2.40625l-10.078125 0zm11.560547 -7.078125q0 -2.1875 0.65625 -3.671875q0.484375 -1.09375 1.328125 -1.953125q0.84375 -0.875 1.84375 -1.296875q1.34375 -0.5625 3.09375 -0.5625q3.15625 0 5.046875 1.96875q1.90625 1.953125 1.90625 5.453125q0 3.46875 -1.890625 5.4375q-1.875 1.953125 -5.03125 1.953125q-3.1875 0 -5.078125 -1.953125q-1.875 -1.953125 -1.875 -5.375zm2.96875 -0.09375q0 2.4375 1.125 3.6875q1.125 1.25 2.859375 1.25q1.71875 0 2.828125 -1.234375q1.109375 -1.25 1.109375 -3.734375q0 -2.46875 -1.078125 -3.671875q-1.078125 -1.21875 -2.859375 -1.21875q-1.796875 0 -2.890625 1.234375q-1.09375 1.21875 -1.09375 3.6875zm26.072266 7.171875l-3.140625 0l-1.25 -3.25l-5.71875 0l-1.1875 3.25l-3.0625 0l5.578125 -14.3125l3.0625 0l5.71875 14.3125zm-5.3125 -5.671875l-1.96875 -5.3125l-1.9375 5.3125l3.90625 0zm6.8496094 -8.640625l5.28125 0q1.78125 0 2.71875 0.265625q1.265625 0.375 2.15625 1.328125q0.90625 0.9375 1.375 2.3125q0.46875 1.375 0.46875 3.390625q0 1.765625 -0.4375 3.046875q-0.546875 1.5625 -1.546875 2.515625q-0.75 0.734375 -2.03125 1.15625q-0.953125 0.296875 -2.546875 0.296875l-5.4375 0l0 -14.3125zm2.890625 2.421875l0 9.484375l2.15625 0q1.203125 0 1.75 -0.140625q0.703125 -0.171875 1.15625 -0.59375q0.46875 -0.421875 0.75 -1.375q0.296875 -0.96875 0.296875 -2.640625q0 -1.65625 -0.296875 -2.546875q-0.28125 -0.890625 -0.8125 -1.375q-0.53125 -0.5 -1.328125 -0.6875q-0.609375 -0.125 -2.375 -0.125l-1.296875 0zm11.552734 11.890625l0 -14.3125l10.625 0l0 2.421875l-7.734375 0l0 3.171875l7.1875 0l0 2.40625l-7.1875 0l0 3.90625l8.0 0l0 2.40625l-10.890625 0zm13.355469 0l0 -14.3125l6.078125 0q2.296875 0 3.328125 0.390625q1.046875 0.375 1.671875 1.359375q0.625 0.984375 0.625 2.265625q0 1.609375 -0.953125 2.65625q-0.9375 1.046875 -2.828125 1.328125q0.9375 0.546875 1.546875 1.203125q0.609375 0.640625 1.65625 2.3125l1.75 2.796875l-3.46875 0l-2.078125 -3.109375q-1.125 -1.671875 -1.53125 -2.109375q-0.40625 -0.4375 -0.875 -0.59375q-0.453125 -0.171875 -1.453125 -0.171875l-0.578125 0l0 5.984375l-2.890625 0zm2.890625 -8.265625l2.140625 0q2.078125 0 2.59375 -0.171875q0.515625 -0.171875 0.8125 -0.59375q0.296875 -0.4375 0.296875 -1.09375q0 -0.71875 -0.390625 -1.15625q-0.390625 -0.453125 -1.09375 -0.5625q-0.34375 -0.046875 -2.109375 -0.046875l-2.25 0l0 3.625z" fill-rule="nonzero"/></g></svg>